# Blender 3.5.0
# www.blender.org
mtllib cube_edited_blender.mtl
o cube_edited
v 0.611560 -0.000000 -0.611560
v 0.611560 -0.611560 0.000000
v 0.611560 -0.611560 -0.611560
v 0.000000 -0.611560 0.611560
v 0.000000 -0.611560 0.000000
v 0.611560 -0.611560 0.000000
v -0.611560 -0.611560 0.611560
v 0.611560 -0.611560 -0.611560
v -0.611560 -0.611560 0.000000
v 0.000000 -0.611560 -0.611560
v -0.611560 -0.611560 -0.611560
v 0.611560 0.611560 -0.000000
v 0.000000 0.611560 0.611560
v 0.611560 0.611560 0.611560
v 0.000000 0.611560 -0.000000
v 0.611560 0.611560 -0.611560
v -0.611560 0.611560 0.611560
v 0.000000 0.611560 -0.611560
v -0.611560 0.611560 -0.000000
v -0.611560 0.611560 -0.611560
v 0.611560 0.000000 0.611560
v 0.000000 -0.611560 0.611560
v 0.611560 -0.611560 0.611560
v 0.000000 0.000000 0.611560
v 0.611560 0.611560 0.611560
v -0.611560 -0.611560 0.611560
v 0.000000 0.611560 0.611560
v -0.611560 0.000000 0.611560
v -0.611560 0.611560 0.611560
v 0.611560 -0.611560 0.611560
v 0.611560 0.000000 0.000000
v 0.611560 0.611560 -0.611560
v 0.611560 -0.611560 0.611560
v 0.611560 0.611560 -0.000000
v 0.611560 0.000000 0.611560
v 0.611560 0.611560 0.611560
v -0.611560 -0.000000 -0.611560
v 0.000000 -0.611560 -0.611560
v -0.611560 -0.611560 -0.611560
v 0.000000 -0.000000 -0.611560
v -0.611560 0.611560 -0.611560
v 0.611560 -0.611560 -0.611560
v 0.000000 0.611560 -0.611560
v 0.611560 -0.000000 -0.611560
v 0.611560 0.611560 -0.611560
v -0.611560 0.000000 0.611560
v -0.611560 -0.611560 0.000000
v -0.611560 -0.611560 0.611560
v -0.611560 0.000000 0.000000
v -0.611560 0.611560 0.611560
v -0.611560 -0.611560 -0.611560
v -0.611560 0.611560 -0.000000
v -0.611560 -0.000000 -0.611560
v -0.611560 0.611560 -0.611560
vn 1.0000 -0.0000 -0.0000
vn -0.0000 -1.0000 -0.0000
vn -0.0000 1.0000 -0.0000
vn -0.0000 -0.0000 1.0000
vn -0.0000 -0.0000 -1.0000
vn -1.0000 -0.0000 -0.0000
s 0
usemtl StaticMeshActor_35
f 1//1 2//1 3//1
f 4//2 5//2 6//2
f 4//2 7//2 5//2
f 6//2 5//2 8//2
f 7//2 9//2 5//2
f 5//2 10//2 8//2
f 5//2 9//2 10//2
f 9//2 11//2 10//2
f 12//3 13//3 14//3
f 12//3 15//3 13//3
f 16//3 15//3 12//3
f 15//3 17//3 13//3
f 16//3 18//3 15//3
f 15//3 19//3 17//3
f 18//3 19//3 15//3
f 18//3 20//3 19//3
f 21//4 22//4 23//4
f 21//4 24//4 22//4
f 25//4 24//4 21//4
f 24//4 26//4 22//4
f 25//4 27//4 24//4
f 24//4 28//4 26//4
f 27//4 28//4 24//4
f 27//4 29//4 28//4
f 30//2 4//2 6//2
f 1//1 31//1 2//1
f 32//1 31//1 1//1
f 31//1 33//1 2//1
f 32//1 34//1 31//1
f 31//1 35//1 33//1
f 34//1 35//1 31//1
f 34//1 36//1 35//1
f 37//5 38//5 39//5
f 37//5 40//5 38//5
f 41//5 40//5 37//5
f 40//5 42//5 38//5
f 41//5 43//5 40//5
f 40//5 44//5 42//5
f 43//5 44//5 40//5
f 43//5 45//5 44//5
f 46//6 47//6 48//6
f 46//6 49//6 47//6
f 50//6 49//6 46//6
f 49//6 51//6 47//6
f 50//6 52//6 49//6
f 49//6 53//6 51//6
f 52//6 53//6 49//6
f 52//6 54//6 53//6
